<svg preserveAspectRatio="none" width="100%" height="100%" overflow="visible" style="display: block;" viewBox="0 0 24 24" fill="none" xmlns="http://www.w3.org/2000/svg">
<g id="bookmark-01">
<path id="Vector" d="M3.99987 17.9809V9.70766C3.99987 6.07429 3.99987 4.25761 5.17144 3.12887C6.34302 2.00013 8.22863 2.00013 11.9999 2.00013C15.7711 2.00013 17.6568 2.00013 18.8283 3.12887C19.9999 4.25761 19.9999 6.07429 19.9999 9.70766V17.9809C19.9999 20.2868 19.9999 21.4397 19.2271 21.8524C17.7304 22.6515 14.9231 19.9853 13.5899 19.1825C12.8167 18.7169 12.4301 18.4841 11.9999 18.4841C11.5697 18.4841 11.1831 18.7169 10.4099 19.1825C9.07667 19.9853 6.26934 22.6515 4.77272 21.8524C3.99987 21.4397 3.99987 20.2868 3.99987 17.9809Z" stroke="var(--stroke-0, white)" stroke-width="1.65678" stroke-linecap="round" stroke-linejoin="round"/>
<path id="Vector_2" d="M3.99987 6.99987H19.9999" stroke="var(--stroke-0, white)" stroke-width="1.65678"/>
</g>
</svg>
