<svg preserveAspectRatio="none" width="100%" height="100%" overflow="visible" style="display: block;" viewBox="0 0 16 16" fill="none" xmlns="http://www.w3.org/2000/svg">
<g id="user-group">
<path id="Vector" d="M13.8493 12C14.3489 12 14.7462 11.6857 15.103 11.2461C15.8333 10.3463 14.6342 9.6272 14.1769 9.27507C13.712 8.91707 13.1929 8.71427 12.6667 8.66667M12 7.33333C12.9205 7.33333 13.6667 6.58714 13.6667 5.66667C13.6667 4.74619 12.9205 4 12 4" stroke="var(--stroke-0, #7E7F87)" stroke-width="1.15254" stroke-linecap="round"/>
<path id="Vector_2" d="M2.15038 12C1.65084 12 1.25352 11.6857 0.896771 11.2461C0.166464 10.3463 1.36552 9.6272 1.82284 9.27507C2.28772 8.91707 2.80679 8.71427 3.33307 8.66667M3.6664 7.33333C2.74593 7.33333 1.99974 6.58714 1.99974 5.66667C1.99974 4.74619 2.74593 4 3.6664 4" stroke="var(--stroke-0, #7E7F87)" stroke-width="1.15254" stroke-linecap="round"/>
<path id="Vector_3" d="M5.38894 10.0744C4.70776 10.4956 2.92173 11.3557 4.00954 12.4319C4.54092 12.9576 5.13275 13.3336 5.87682 13.3336H10.1227C10.8667 13.3336 11.4585 12.9576 11.9899 12.4319C13.0777 11.3557 11.2917 10.4956 10.6105 10.0744C9.01314 9.08666 6.98634 9.08666 5.38894 10.0744Z" stroke="var(--stroke-0, #7E7F87)" stroke-width="1.15254" stroke-linecap="round" stroke-linejoin="round"/>
<path id="Vector_4" d="M10.3331 4.99974C10.3331 6.28841 9.28841 7.33307 7.99974 7.33307C6.71107 7.33307 5.66641 6.28841 5.66641 4.99974C5.66641 3.71107 6.71107 2.66641 7.99974 2.66641C9.28841 2.66641 10.3331 3.71107 10.3331 4.99974Z" stroke="var(--stroke-0, #7E7F87)" stroke-width="1.15254"/>
</g>
</svg>
